<?xml version="1.0" encoding="utf-8"?>
<!-- Generator: Adobe Illustrator 26.0.0, SVG Export Plug-In . SVG Version: 6.00 Build 0)  -->
<svg version="1.1" id="Layer_1" xmlns="http://www.w3.org/2000/svg" xmlns:xlink="http://www.w3.org/1999/xlink" x="0px" y="0px"
	 viewBox="0 0 100 20" style="enable-background:new 0 0 100 20;" xml:space="preserve">
<style type="text/css">
	.st0{clip-path:url(#SVGID_00000079482225002778876490000014307884537763391658_);}
	.st1{fill:#10B981;}
	.st2{fill:#F2F2F2;}
</style>
<g>
	<defs>
		<rect id="SVGID_1_" y="0.7" width="16" height="18.3"/>
	</defs>
	<clipPath id="SVGID_00000083808102577297965550000008679156508437102244_">
		<use xlink:href="#SVGID_1_"  style="overflow:visible;"/>
	</clipPath>
	<g style="clip-path:url(#SVGID_00000083808102577297965550000008679156508437102244_);">
		<path class="st1" d="M12.6,6.4V5.3c0-2.5-2.1-4.6-4.6-4.6c-2.5,0-4.6,2.1-4.6,4.6v1.1H0v9.7C0,17.7,1.3,19,2.9,19h10.3
			c1.6,0,2.9-1.3,2.9-2.9V6.4H12.6z M5.7,5.3C5.7,4,6.7,3,8,3s2.3,1,2.3,2.3v1.1H5.7V5.3z M11.4,9.6c-0.5,0-0.9-0.4-0.9-0.9
			c0-0.5,0.4-0.9,0.9-0.9s0.9,0.4,0.9,0.9C12.3,9.2,11.9,9.6,11.4,9.6z M4.6,9.6c-0.5,0-0.9-0.4-0.9-0.9c0-0.5,0.4-0.9,0.9-0.9
			c0.5,0,0.9,0.4,0.9,0.9C5.4,9.2,5,9.6,4.6,9.6z"/>
	</g>
</g>
<g>
	<path class="st2" d="M17.4,4.1h8.8V7h-2.9v8.8h-2.9V7h-2.9V4.1z"/>
	<path class="st2" d="M26.8,7.3h2.4v1.4c0.2-0.6,0.5-1,0.7-1.2c0.2-0.2,0.6-0.3,0.9-0.3c0.4,0,0.8,0.1,1.3,0.4l-0.8,2.3
		c-0.3-0.2-0.5-0.2-0.7-0.2c-0.3,0-0.6,0.2-0.8,0.5c-0.3,0.5-0.4,1.4-0.4,2.8v2.8h-2.6V7.3z"/>
	<path class="st2" d="M35.1,10l-2.5-0.3c0.1-0.5,0.2-1,0.4-1.3c0.2-0.3,0.4-0.6,0.8-0.8c0.2-0.2,0.6-0.3,1-0.4s0.9-0.1,1.4-0.1
		c0.8,0,1.4,0.1,1.9,0.2c0.5,0.1,0.9,0.3,1.2,0.7c0.2,0.2,0.4,0.6,0.5,1c0.1,0.4,0.2,0.9,0.2,1.3V14c0,0.4,0,0.7,0.1,0.9
		c0,0.2,0.1,0.5,0.3,0.9h-2.4c-0.1-0.2-0.2-0.4-0.2-0.5c0-0.1-0.1-0.3-0.1-0.5c-0.3,0.4-0.7,0.7-1,0.9c-0.5,0.2-1,0.4-1.6,0.4
		c-0.8,0-1.4-0.2-1.8-0.7c-0.4-0.5-0.6-1-0.6-1.7c0-0.6,0.2-1.2,0.5-1.6c0.3-0.4,0.9-0.7,1.7-0.9c1-0.2,1.6-0.4,1.9-0.5
		c0.3-0.1,0.6-0.2,0.9-0.4c0-0.4-0.1-0.7-0.2-0.8C37,9.1,36.8,9,36.5,9c-0.4,0-0.7,0.1-1,0.3C35.4,9.4,35.2,9.7,35.1,10z M37.4,11.7
		c-0.4,0.2-0.7,0.3-1.1,0.4c-0.5,0.2-0.9,0.3-1,0.5c-0.1,0.2-0.2,0.4-0.2,0.6c0,0.3,0.1,0.5,0.2,0.6c0.1,0.2,0.4,0.2,0.6,0.2
		c0.3,0,0.6-0.1,0.8-0.3c0.2-0.2,0.4-0.4,0.5-0.6c0.1-0.3,0.2-0.6,0.2-1V11.7z"/>
	<path class="st2" d="M48.6,4.1v11.7h-2.4v-1.3c-0.3,0.5-0.7,0.9-0.9,1.1C44.9,15.8,44.5,16,44,16c-0.9,0-1.6-0.4-2.1-1.3
		c-0.5-0.9-0.7-1.9-0.7-3.2c0-1.4,0.3-2.5,0.8-3.2c0.5-0.7,1.2-1.1,2.1-1.1c0.4,0,0.8,0.1,1.1,0.3c0.3,0.2,0.6,0.4,0.9,0.8V4.1H48.6
		z M46,11.5c0-0.7-0.1-1.2-0.3-1.5c-0.2-0.3-0.5-0.5-0.9-0.5c-0.3,0-0.6,0.2-0.8,0.5c-0.2,0.3-0.3,0.8-0.3,1.6
		c0,0.7,0.1,1.2,0.3,1.5c0.2,0.3,0.5,0.5,0.8,0.5c0.3,0,0.6-0.2,0.8-0.5C45.9,12.8,46,12.2,46,11.5z"/>
	<path class="st2" d="M57.7,12.3h-5.2c0,0.5,0.2,0.9,0.3,1.2c0.3,0.4,0.6,0.6,1,0.6c0.3,0,0.5-0.1,0.7-0.2c0.1-0.1,0.3-0.3,0.5-0.5
		l2.6,0.3c-0.4,0.9-0.9,1.5-1.4,1.8c-0.6,0.4-1.3,0.6-2.4,0.6c-0.9,0-1.6-0.2-2.1-0.5c-0.5-0.3-0.9-0.8-1.3-1.5
		c-0.3-0.7-0.5-1.5-0.5-2.4c0-1.3,0.3-2.4,1-3.2c0.7-0.8,1.6-1.2,2.8-1.2c1,0,1.7,0.2,2.3,0.6c0.6,0.4,1,0.9,1.3,1.6
		c0.3,0.7,0.4,1.6,0.4,2.7V12.3z M55.1,10.8c-0.1-0.6-0.2-1.1-0.4-1.4C54.5,9.2,54.2,9,53.8,9c-0.4,0-0.7,0.2-1,0.6
		c-0.2,0.3-0.3,0.6-0.3,1.1H55.1z"/>
	<path class="st2" d="M63.5,4.1h4.3c0.8,0,1.5,0.1,2.1,0.4c0.5,0.3,1,0.7,1.3,1.2c0.3,0.5,0.6,1.2,0.7,1.9c0.2,0.7,0.2,1.5,0.2,2.3
		c0,1.3-0.1,2.2-0.3,2.9s-0.5,1.3-0.9,1.7c-0.4,0.5-0.8,0.8-1.3,0.9c-0.6,0.2-1.2,0.3-1.7,0.3h-4.3V4.1z M66.4,6.7v6.4h0.7
		c0.6,0,1-0.1,1.3-0.3c0.3-0.2,0.5-0.5,0.6-0.9c0.1-0.4,0.2-1.1,0.2-2c0-1.2-0.2-2.1-0.5-2.5s-0.9-0.7-1.6-0.7H66.4z"/>
	<path class="st2" d="M80.6,15.8h-2.4v-1.4c-0.4,0.6-0.7,1-1.1,1.2c-0.4,0.2-0.8,0.4-1.4,0.4c-0.7,0-1.3-0.3-1.7-0.8
		c-0.4-0.5-0.6-1.4-0.6-2.5V7.3H76V12c0,0.5,0.1,0.9,0.2,1.1c0.2,0.2,0.4,0.3,0.7,0.3c0.3,0,0.6-0.1,0.8-0.4
		c0.2-0.3,0.3-0.8,0.3-1.6V7.3h2.6V15.8z"/>
	<path class="st2" d="M82.2,19V7.3h2.4v1.3c0.3-0.5,0.6-0.9,0.9-1.1c0.4-0.3,0.8-0.4,1.3-0.4c0.9,0,1.6,0.4,2.1,1.3
		c0.5,0.9,0.7,1.9,0.7,3.2c0,1.4-0.3,2.5-0.8,3.2c-0.5,0.7-1.2,1.1-2,1.1c-0.4,0-0.8-0.1-1.1-0.3c-0.3-0.2-0.6-0.4-0.9-0.8V19H82.2z
		 M84.8,11.6c0,0.7,0.1,1.2,0.3,1.5c0.2,0.3,0.5,0.5,0.9,0.5c0.3,0,0.6-0.2,0.8-0.5c0.2-0.3,0.3-0.8,0.3-1.6c0-0.7-0.1-1.2-0.3-1.5
		c-0.2-0.3-0.5-0.5-0.8-0.5c-0.3,0-0.6,0.2-0.8,0.5C84.9,10.3,84.8,10.8,84.8,11.6z"/>
	<path class="st2" d="M98.4,12.3h-5.2c0,0.5,0.2,0.9,0.3,1.2c0.3,0.4,0.6,0.6,1,0.6c0.3,0,0.5-0.1,0.7-0.2c0.1-0.1,0.3-0.3,0.5-0.5
		l2.6,0.3c-0.4,0.9-0.9,1.5-1.4,1.8c-0.6,0.4-1.3,0.6-2.4,0.6c-0.9,0-1.6-0.2-2.1-0.5c-0.5-0.3-0.9-0.8-1.3-1.5
		c-0.3-0.7-0.5-1.5-0.5-2.4c0-1.3,0.3-2.4,1-3.2s1.6-1.2,2.8-1.2c1,0,1.7,0.2,2.3,0.6c0.6,0.4,1,0.9,1.3,1.6
		c0.3,0.7,0.4,1.6,0.4,2.7V12.3z M95.8,10.8c-0.1-0.6-0.2-1.1-0.4-1.4C95.2,9.2,94.9,9,94.5,9c-0.4,0-0.7,0.2-1,0.6
		c-0.2,0.3-0.3,0.6-0.3,1.1H95.8z"/>
</g>
</svg>
